<svg version="1.1" id="Layer_1" xmlns:x="ns_extend;" xmlns:i="ns_ai;" xmlns:graph="ns_graphs;" xmlns="http://www.w3.org/2000/svg" xmlns:xlink="http://www.w3.org/1999/xlink" x="0px" y="0px" viewBox="0 0 89.1 89.1" style="enable-background:new 0 0 89.1 89.1;" xml:space="preserve">
 <style type="text/css">
  .st0{fill:#C30045;}
	.st1{fill:#FFFFFF;}
	.st2{display:none;}
	.st3{display:inline;fill:none;}
 </style>
 <metadata>
  <sfw xmlns="ns_sfw;">
   <slices>
   </slices>
   <sliceSourceBounds bottomLeftOrigin="true" height="267.2" width="599.8" x="0" y="0.1">
   </sliceSourceBounds>
  </sfw>
 </metadata>
 <g>
  <path class="st0" d="M72.7,0H16.4C7.4,0,0,7.4,0,16.4v56.3c0,9,7.4,16.4,16.4,16.4h72.7V16.4C89.1,7.4,81.7,0,72.7,0z M62.2,63.3
		H26.7c-4.1,0-6.3-3.2-6.3-6.3c0-3.1,2.2-6.3,6.3-6.3h35.5c4.1,0,6.3,3.3,6.3,6.3C68.5,60.1,66.3,63.3,62.2,63.3z M62.2,38.4H26.7
		c-4.1,0-6.3-3.2-6.3-6.3c0-3.1,2.2-6.3,6.3-6.3h35.5c4.1,0,6.3,3.3,6.3,6.3C68.5,35.2,66.3,38.4,62.2,38.4z">
  </path>
  <path class="st1" d="M62.2,25.8H26.7c-4.1,0-6.3,3.2-6.3,6.3c0,3.1,2.2,6.3,6.3,6.3h35.5c4.1,0,6.3-3.2,6.3-6.3
		C68.5,29.1,66.3,25.8,62.2,25.8z">
  </path>
  <path class="st1" d="M62.2,50.7H26.7c-4.1,0-6.3,3.2-6.3,6.3c0,3.1,2.2,6.3,6.3,6.3h35.5c4.1,0,6.3-3.2,6.3-6.3
		C68.5,54,66.3,50.7,62.2,50.7z">
  </path>
 </g>
 <g id="Repères">
 </g>
 <g id="Zone_de_protection" class="st2">
  <path class="st3" d="M163.2,132.4c-0.2-0.2-0.3-0.4-0.3-0.6c0-0.3,0.1-0.5,0.3-0.7c4.9-4.6,7.7-11.1,7.7-17.9
		c0-13.3-10.6-24.1-23.7-24.1h-22.1c-2.9,0-5.3,2.5-5.3,5.4v78.2c0,2.9,2.4,5.4,5.3,5.4h22.1c13.9,0,25.3-11.6,25.3-25.9
		C172.5,144.7,169,137.3,163.2,132.4z M130.5,100.8c0-0.5,0.4-0.9,0.8-0.9h15.9c6.5,0,12.1,5,12.9,11.6v0.1v1.5
		c0,7.4-5.8,13.4-12.9,13.4h-15.9c-0.5,0-0.8-0.4-0.8-0.9V100.8z M147.3,167.3h-15.9c-0.5,0-0.8-0.4-0.8-0.9v-28.1
		c0-0.5,0.4-0.9,0.8-0.9h15.9c8.1,0,14.6,6.7,14.6,15C161.9,160.6,155.3,167.3,147.3,167.3z">
  </path>
  <path class="st3" d="M163.2-45.8c-0.2-0.2-0.3-0.4-0.3-0.6c0-0.3,0.1-0.5,0.3-0.7c4.9-4.6,7.7-11.1,7.7-17.9
		c0-13.3-10.6-24.1-23.7-24.1h-22.1c-2.9,0-5.3,2.5-5.3,5.4v78.2c0,2.9,2.4,5.4,5.3,5.4h22.1c13.9,0,25.3-11.6,25.3-25.9
		C172.5-33.5,169-40.9,163.2-45.8z M130.5-77.4c0-0.5,0.4-0.9,0.8-0.9h15.9c6.5,0,12.1,5,12.9,11.6v0.1v1.5
		c0,7.4-5.8,13.4-12.9,13.4h-15.9c-0.5,0-0.8-0.4-0.8-0.9V-77.4z M147.3-10.9h-15.9c-0.5,0-0.8-0.4-0.8-0.9v-28.1
		c0-0.5,0.4-0.9,0.8-0.9h15.9c8.1,0,14.6,6.7,14.6,15C161.9-17.6,155.3-10.9,147.3-10.9z">
  </path>
  <path class="st3" d="M464.9,36.2c-0.2,0.2-0.4,0.3-0.6,0.3c-0.3,0-0.5-0.1-0.7-0.3c-4.6-4.9-11.1-7.7-17.9-7.7
		c-13.3,0-24.1,10.6-24.1,23.7v22.1c0,2.9,2.5,5.3,5.4,5.3h78.2c2.9,0,5.4-2.4,5.4-5.3V52.2c0-13.9-11.6-25.3-25.9-25.3
		C477.2,26.9,469.8,30.4,464.9,36.2z M433.3,68.9c-0.5,0-0.9-0.4-0.9-0.8V52.2c0-6.5,5-12.1,11.6-12.9h0.1h1.5
		c7.4,0,13.4,5.8,13.4,12.9v15.9c0,0.5-0.4,0.8-0.9,0.8H433.3z M499.8,52.2v15.9c0,0.5-0.4,0.8-0.9,0.8h-28.1
		c-0.5,0-0.9-0.4-0.9-0.8V52.2c0-8.1,6.7-14.6,15-14.6C493.1,37.5,499.8,44.1,499.8,52.2z">
  </path>
  <path class="st3" d="M-45.9,28.8c-0.2,0.2-0.4,0.3-0.6,0.3c-0.3,0-0.5-0.1-0.7-0.3c-4.6-4.9-11.1-7.7-17.9-7.7
		c-13.3,0-24.1,10.6-24.1,23.6v22.1c0,2.9,2.5,5.3,5.4,5.3h78.2c2.9,0,5.4-2.4,5.4-5.3V44.7c0-13.9-11.6-25.3-25.9-25.3
		C-33.6,19.5-41,23-45.9,28.8z M-77.5,61.5c-0.5,0-0.9-0.4-0.9-0.8V44.8c0-6.5,5-12.1,11.6-12.9h0.1h1.5c7.4,0,13.4,5.8,13.4,12.9
		v15.9c0,0.5-0.4,0.8-0.9,0.8H-77.5z M-11,44.7v15.9c0,0.5-0.4,0.8-0.9,0.8H-40c-0.5,0-0.9-0.4-0.9-0.8V44.7c0-8.1,6.7-14.6,15-14.6
		C-17.7,30.1-11,36.7-11,44.7z">
  </path>
 </g>
</svg>